# xmcd
#
# Track frame offsets: 
#        150
#        14754
#        30486
#        47505
#        62554
#        79116
#        94191
#        108441
#        124502
#        139472
#        155876
#        170738
#
# Disc length: 2472 seconds
#
# Revision: 0
# Processed by: cddbd v1.5.2PL0 Copyright (c) Steve Scherf et al.
# Submitted via: ExactAudioCopy v1.0b3
#
DISCID=a209a60c
DTITLE=Confederate Railroad - Lucky To Be Alive
DYEAR=2016
DGENRE=Country
TTITLE0=Lucky To Be Alive
TTITLE1=Played The Game
TTITLE2=If I Ever Cross That Line
TTITLE3=The Man I Am Today
TTITLE4=Trashy Women (20th Anniversary)
TTITLE5=Somebody Like You
TTITLE6=Goodbye Song
TTITLE7=Whiskey and Women
TTITLE8=Fast Cars and Guitars and Fine Tuned Women
TTITLE9=I'm Not Fallin' For That
TTITLE10=Psycho Bitch From Hell (Live)
TTITLE11=Don't Feel As Young As I Used To
EXTD=
EXTT0=
EXTT1=
EXTT2=
EXTT3=
EXTT4=
EXTT5=
EXTT6=
EXTT7=
EXTT8=
EXTT9=
EXTT10=
EXTT11=
PLAYORDER=
